<mxfile host="app.diagrams.net" modified="2022-01-22T19:54:38.302Z" agent="5.0 (Windows NT 10.0; Win64; x64) AppleWebKit/537.36 (KHTML, like Gecko) Chrome/96.0.4664.110 Safari/537.36 OPR/82.0.4227.58" etag="vhNRO4eXgEzO6gzm-uTR" version="16.4.5" type="github">
  <diagram id="Wa9q6WMrwmBa0NdEJrAI" name="Page-1">
    <mxGraphModel dx="998" dy="580" grid="1" gridSize="10" guides="1" tooltips="1" connect="1" arrows="1" fold="1" page="1" pageScale="1" pageWidth="827" pageHeight="1169" math="0" shadow="0">
      <root>
        <mxCell id="0" />
        <mxCell id="1" parent="0" />
        <mxCell id="abkBSfwsFrkiCuZ66r6--3" style="edgeStyle=orthogonalEdgeStyle;rounded=0;orthogonalLoop=1;jettySize=auto;html=1;exitX=0.5;exitY=1;exitDx=0;exitDy=0;entryX=0.5;entryY=0;entryDx=0;entryDy=0;" edge="1" parent="1" source="abkBSfwsFrkiCuZ66r6--1" target="abkBSfwsFrkiCuZ66r6--2">
          <mxGeometry relative="1" as="geometry" />
        </mxCell>
        <mxCell id="abkBSfwsFrkiCuZ66r6--1" value="Начало" style="ellipse;whiteSpace=wrap;html=1;" vertex="1" parent="1">
          <mxGeometry x="300" y="20" width="120" height="50" as="geometry" />
        </mxCell>
        <mxCell id="abkBSfwsFrkiCuZ66r6--5" style="edgeStyle=orthogonalEdgeStyle;rounded=0;orthogonalLoop=1;jettySize=auto;html=1;exitX=0.5;exitY=1;exitDx=0;exitDy=0;entryX=0.5;entryY=0;entryDx=0;entryDy=0;" edge="1" parent="1" source="abkBSfwsFrkiCuZ66r6--2" target="abkBSfwsFrkiCuZ66r6--4">
          <mxGeometry relative="1" as="geometry" />
        </mxCell>
        <mxCell id="abkBSfwsFrkiCuZ66r6--15" style="edgeStyle=orthogonalEdgeStyle;rounded=0;orthogonalLoop=1;jettySize=auto;html=1;exitX=1;exitY=0.5;exitDx=0;exitDy=0;entryX=0.5;entryY=0;entryDx=0;entryDy=0;" edge="1" parent="1" source="abkBSfwsFrkiCuZ66r6--2" target="abkBSfwsFrkiCuZ66r6--14">
          <mxGeometry relative="1" as="geometry">
            <Array as="points">
              <mxPoint x="480" y="140" />
              <mxPoint x="480" y="500" />
              <mxPoint x="360" y="500" />
            </Array>
          </mxGeometry>
        </mxCell>
        <mxCell id="abkBSfwsFrkiCuZ66r6--2" value="var item in users" style="shape=hexagon;perimeter=hexagonPerimeter2;whiteSpace=wrap;html=1;fixedSize=1;" vertex="1" parent="1">
          <mxGeometry x="260" y="100" width="200" height="80" as="geometry" />
        </mxCell>
        <mxCell id="abkBSfwsFrkiCuZ66r6--8" value="" style="edgeStyle=orthogonalEdgeStyle;rounded=0;orthogonalLoop=1;jettySize=auto;html=1;" edge="1" parent="1" source="abkBSfwsFrkiCuZ66r6--4" target="abkBSfwsFrkiCuZ66r6--6">
          <mxGeometry relative="1" as="geometry" />
        </mxCell>
        <mxCell id="abkBSfwsFrkiCuZ66r6--4" value="$&quot;Hello, {item.Name}&quot;" style="shape=parallelogram;perimeter=parallelogramPerimeter;whiteSpace=wrap;html=1;fixedSize=1;" vertex="1" parent="1">
          <mxGeometry x="275" y="220" width="170" height="60" as="geometry" />
        </mxCell>
        <mxCell id="abkBSfwsFrkiCuZ66r6--11" value="" style="edgeStyle=orthogonalEdgeStyle;rounded=0;orthogonalLoop=1;jettySize=auto;html=1;" edge="1" parent="1" source="abkBSfwsFrkiCuZ66r6--6" target="abkBSfwsFrkiCuZ66r6--10">
          <mxGeometry relative="1" as="geometry" />
        </mxCell>
        <mxCell id="abkBSfwsFrkiCuZ66r6--12" style="edgeStyle=orthogonalEdgeStyle;rounded=0;orthogonalLoop=1;jettySize=auto;html=1;entryX=0;entryY=0.5;entryDx=0;entryDy=0;" edge="1" parent="1" source="abkBSfwsFrkiCuZ66r6--6" target="abkBSfwsFrkiCuZ66r6--2">
          <mxGeometry relative="1" as="geometry">
            <Array as="points">
              <mxPoint x="210" y="350" />
              <mxPoint x="210" y="140" />
            </Array>
          </mxGeometry>
        </mxCell>
        <mxCell id="abkBSfwsFrkiCuZ66r6--6" value="!item.IsPremium" style="rhombus;whiteSpace=wrap;html=1;" vertex="1" parent="1">
          <mxGeometry x="290" y="310" width="140" height="80" as="geometry" />
        </mxCell>
        <mxCell id="abkBSfwsFrkiCuZ66r6--13" style="edgeStyle=orthogonalEdgeStyle;rounded=0;orthogonalLoop=1;jettySize=auto;html=1;" edge="1" parent="1" source="abkBSfwsFrkiCuZ66r6--10">
          <mxGeometry relative="1" as="geometry">
            <mxPoint x="210" y="350" as="targetPoint" />
          </mxGeometry>
        </mxCell>
        <mxCell id="abkBSfwsFrkiCuZ66r6--10" value="ShowAds();" style="whiteSpace=wrap;html=1;" vertex="1" parent="1">
          <mxGeometry x="300" y="430" width="120" height="60" as="geometry" />
        </mxCell>
        <mxCell id="abkBSfwsFrkiCuZ66r6--14" value="Конец" style="ellipse;whiteSpace=wrap;html=1;" vertex="1" parent="1">
          <mxGeometry x="300" y="520" width="120" height="50" as="geometry" />
        </mxCell>
      </root>
    </mxGraphModel>
  </diagram>
</mxfile>
